#!OML:ASF E:\motion texture\Top Level 1\Subject 1\Session 1\male.ASF
:FULLY-SPECIFIED
:DEGREES
666
root -47.22 17.7694 -0.130945 808.123 -81.9943 -801.042
lowerback -1.4895 -0.340201 5.04287
upperback -1.00046 -0.521258 -0.184318
thorax -0.240081 -0.289901 -3.02348
lowerneck -2.71871 -15.8543 -17.3175
upperneck 5.02318 -22.5318 20.0595
head 6.28325 -10.9577 6.86081
rclavicle -3.97569e-016 -1.51076e-014
rhumerus 18.4386 -45.2708 -41.6123
rradius 78.9238
rwrist 12.3627
rhand -26.9827 -41.5567
rfingers 7.12502
rthumb -0.403334 -431.536
lclavicle -3.97569e-016 -1.51076e-014
lhumerus -50.1875 44.6202 37.2931
lradius 15.8684
lwrist -43.1968
lhand -15.1073 33.6612
lfingers 7.12502
lthumb 11.0613 63.3497
rfemur -8.25305 -2.69905 29.5633
rtibia 46.0738
rfoot -2.85676 -13.7043
rtoes -11.3566
lfemur -28.689 -4.8723 -9.38911
ltibia 21.6273
lfoot 1.05979 3.45823
ltoes -8.90606
667
root -47.37 17.7716 -0.0969347 807.985 -82.3977 -801.147
lowerback -1.42506 -0.403077 4.78166
upperback -0.990661 -0.597757 -0.29076
thorax -0.271121 -0.327309 -2.98674
lowerneck -2.32631 -15.7189 -17.421
upperneck 4.81996 -22.3908 20.2311
head 6.16312 -10.9176 6.99015
rclavicle 2.43511e-015 1.43125e-014
rhumerus 14.9261 -44.0028 -39.8239
rradius 81.8815
rwrist 13.0214
rhand -28.2443 -42.0714
rfingers 7.12502
rthumb -1.62184 -432.045
lclavicle 2.43511e-015 1.43125e-014
lhumerus -50.8547 45.0527 36.6726
lradius 15.787
lwrist -43.3342
lhand -15.1644 33.6316
lfingers 7.12502
lthumb 11.0062 63.3231
rfemur -9.1192 -3.11503 28.8532
rtibia 48.4284
rfoot -0.576952 -13.7306
rtoes -8.76236
lfemur -28.2503 -5.04708 -10.1377
ltibia 22.3703
lfoot 0.213949 3.45482
ltoes -8.24668
668
root -47.5144 17.7755 -0.0646964 808.992 -82.8152 -802.435
lowerback -1.29161 -0.457998 4.46086
upperback -0.941246 -0.660683 -0.363328
thorax -0.297419 -0.356566 -2.88084
lowerneck -2.43857 -15.6844 -17.5197
upperneck 4.9523 -22.3416 20.213
head 6.22236 -10.8853 6.99518
rclavicle -6.11263e-015 -4.77083e-015
rhumerus 11.609 -42.6493 -38.3094
rradius 84.6943
rwrist 13.0292
rhand -28.8981 -41.1044
rfingers 7.12502
rthumb -2.25327 -431.072
lclavicle -6.11263e-015 -4.77083e-015
lhumerus -50.9652 44.8276 37.083
lradius 15.9687
lwrist -42.4121
lhand -15.2557 33.643
lfingers 7.12502
lthumb 10.9181 63.3391
rfemur -10.0415 -3.31299 28.1819
rtibia 50.8065
rfoot 1.83154 -13.8464
rtoes -5.57013
lfemur -27.6579 -4.99666 -10.8397
ltibia 22.897
lfoot -0.296063 3.26879
ltoes -8.19817
669
root -47.6548 17.7789 -0.0315108 810.282 -83.1988 -804.032
lowerback -1.15617 -0.484514 4.2278
upperback -0.888207 -0.687503 -0.438248
thorax -0.318992 -0.368147 -2.82619
lowerneck -2.32547 -15.6069 -17.5685
upperneck 4.97008 -22.2263 20.0753
head 6.17359 -10.8391 6.98952
rclavicle 4.67144e-015 2.3059e-014
rhumerus 8.45119 -41.2447 -37.1545
rradius 87.5238
rwrist 13.2629
rhand -29.6911 -40.796
rfingers 7.12502
rthumb -3.01914 -430.754
lclavicle 4.67144e-015 2.3059e-014
lhumerus -51.1772 44.8431 37.2874
lradius 16.0424
lwrist -41.8363
lhand -15.4479 33.2615
lfingers 7.12502
lthumb 10.7327 62.9673
rfemur -10.9726 -3.44474 27.5459
rtibia 53.0881
rfoot 4.28211 -14.0661
rtoes -2.01626
lfemur -26.9275 -4.82865 -11.5317
ltibia 23.2476
lfoot -1.01779 3.15687
ltoes -8.21779
670
root -47.7994 17.7831 0.00313665 812.421 -83.6933 -806.501
lowerback -1.04773 -0.532585 3.84648
upperback -0.818126 -0.744092 -0.511578
thorax -0.308044 -0.393019 -2.68703
lowerneck -2.1274 -15.4445 -17.7607
upperneck 4.84456 -22.0155 20.1911
head 6.09889 -10.7527 7.10815
rclavicle -2.38542e-015 7.95139e-016
rhumerus 5.51311 -39.6268 -36.3327
rradius 90.2503
rwrist 13.4074
rhand -30.6262 -40.4416
rfingers 7.12502
rthumb -3.9222 -430.385
lclavicle -2.38542e-015 7.95139e-016
lhumerus -51.1053 44.4529 38.0668
lradius 16.2418
lwrist -40.5984
lhand -15.4483 33.1537
lfingers 7.12502
lthumb 10.7323 62.8596
rfemur -11.826 -3.53694 26.7781
rtibia 55.1632
rfoot 6.69744 -14.4211
rtoes 2.08502
lfemur -26.0412 -4.76387 -12.3411
ltibia 23.4664
lfoot -1.66002 3.17931
ltoes -7.99991
671
root -47.9473 17.7885 0.0377148 814.922 -84.0357 -809.305
lowerback -1.12072 -0.546796 3.64511
upperback -0.699804 -0.765443 -0.555595
thorax -0.14505 -0.397633 -2.62095
lowerneck -2.31241 -15.4332 -17.7837
upperneck 5.16325 -21.9635 19.8339
head 6.17292 -10.7154 6.98944
rclavicle -4.47266e-015 -9.54166e-015
rhumerus 2.28283 -37.8872 -35.5944
rradius 93.0608
rwrist 13.5344
rhand -31.914 -40.3252
rfingers 7.12502
rthumb -5.16571 -430.242
lclavicle -4.47266e-015 -9.54166e-015
lhumerus -50.7725 43.9461 39.1885
lradius 16.4549
lwrist -39.2696
lhand -15.3156 33.0872
lfingers 7.12502
lthumb 10.8603 62.7864
rfemur -12.732 -3.82115 26.1994
rtibia 57.2093
rfoot 9.24794 -14.6664
rtoes 6.01726
lfemur -25.0906 -4.69986 -12.9919
ltibia 23.4713
lfoot -2.09942 3.17473
ltoes -7.38892
672
root -48.0825 17.7952 0.064524 819.374 -84.4691 -814.042
lowerback -0.944957 -0.554738 3.21147
upperback -0.65787 -0.766054 -0.609826
thorax -0.195309 -0.39662 -2.43135
lowerneck -2.46233 -15.358 -17.8179
upperneck 5.36142 -21.8337 19.6384
head 6.21258 -10.6437 6.94161
rclavicle 1.24737e-014 -1.59028e-015
rhumerus -1.29153 -35.4819 -34.5765
rradius 95.7533
rwrist 13.1479
rhand -32.9057 -39.956
rfingers 7.12502
rthumb -6.12313 -429.848
lclavicle 1.24737e-014 -1.59028e-015
lhumerus -50.502 43.5004 40.2361
lradius 16.6136
lwrist -38.0499
lhand -15.1557 33.0251
lfingers 7.12502
lthumb 11.0146 62.7161
rfemur -13.6945 -3.70217 25.5892
rtibia 59.0483
rfoot 11.506 -15.28
rtoes 10.0533
lfemur -24.2037 -4.52213 -13.6757
ltibia 23.5183
lfoot -2.54656 3.26144
ltoes -7.06879
